<svg width="61" height="54" viewBox="0 0 61 54" fill="none" xmlns="http://www.w3.org/2000/svg">
<path d="M39.75 7.3125V12H21V7.3125C21 6.79688 21.4219 6.375 21.9375 6.375H38.8125C39.3281 6.375 39.75 6.79688 39.75 7.3125ZM45.375 12V7.3125C45.375 3.69141 42.4336 0.75 38.8125 0.75H21.9375C18.3164 0.75 15.375 3.69141 15.375 7.3125V12H12.082C10.5938 12 9.16406 12.5977 8.10938 13.6523L2.02734 19.7344C0.972656 20.7891 0.375 22.2188 0.375 23.707V32.625H15.375V30.75C15.375 28.6758 17.0508 27 19.125 27C21.1992 27 22.875 28.6758 22.875 30.75V32.625H37.875V30.75C37.875 28.6758 39.5508 27 41.625 27C43.6992 27 45.375 28.6758 45.375 30.75V32.625H60.375V23.707C60.375 22.2188 59.7773 20.7891 58.7227 19.7344L52.6406 13.6523C51.5859 12.5977 50.1562 12 48.668 12H45.375ZM60.375 45.75V36.375H45.375V38.25C45.375 40.3242 43.6992 42 41.625 42C39.5508 42 37.875 40.3242 37.875 38.25V36.375H22.875V38.25C22.875 40.3242 21.1992 42 19.125 42C17.0508 42 15.375 40.3242 15.375 38.25V36.375H0.375V45.75C0.375 49.8867 3.73828 53.25 7.875 53.25H52.875C57.0117 53.25 60.375 49.8867 60.375 45.75Z" fill="#FFD700"/>
</svg>
