<svg width="64" height="47" viewBox="0 0 64 47" fill="none" xmlns="http://www.w3.org/2000/svg">
<path fill-rule="evenodd" clip-rule="evenodd" d="M61.613 0.806396H2.36085L31.6021 27.4763L61.613 0.806396ZM0.421387 2.84774V44.9779C4.45953 41.3522 8.93433 37.3545 12.9612 33.7946C16.2295 30.9054 19.2083 28.2996 21.4207 26.414C22.4313 25.5527 23.2905 24.8343 23.948 24.3055L0.421387 2.84774ZM3.30337 46.17H61.3102L37.5468 25.9533L32.6604 30.2957L31.5741 31.261L30.5022 30.2834L26.0358 26.2097C25.4069 26.7139 24.5539 27.4261 23.5205 28.3069C21.3283 30.1753 18.365 32.7674 15.1002 35.6536C11.3197 38.9956 7.14235 42.7254 3.30337 46.17ZM63.6759 44.5033V2.73289L39.662 24.0735L63.6759 44.5033Z" fill="#FFD700"/>
</svg>
