<svg width="61" height="60" viewBox="0 0 61 60" fill="none" xmlns="http://www.w3.org/2000/svg">
<path d="M41.3125 37.5C51.6719 37.5 60.0625 29.1094 60.0625 18.75C60.0625 16.957 59.8047 15.2227 59.3359 13.5703C58.9727 12.3047 57.4141 12.0234 56.4883 12.9492L47.4883 21.9492C47.1367 22.3008 46.6562 22.5 46.1641 22.5H39.4375C38.4062 22.5 37.5625 21.6562 37.5625 20.625V13.8984C37.5625 13.4062 37.7617 12.9258 38.1133 12.5742L47.1133 3.57422C48.0391 2.64844 47.7461 1.08984 46.4922 0.726562C44.8398 0.257812 43.1055 0 41.3125 0C30.9531 0 22.5625 8.39062 22.5625 18.75C22.5625 20.9883 22.9609 23.1445 23.6758 25.1367L2.39453 46.418C0.90625 47.9062 0.0625 49.9336 0.0625 52.043C0.0625 56.4375 3.625 60 8.01953 60C10.1289 60 12.1562 59.1562 13.6445 57.668L34.9258 36.3867C36.918 37.1133 39.0742 37.5 41.3125 37.5ZM9.4375 47.8125C10.1834 47.8125 10.8988 48.1088 11.4262 48.6363C11.9537 49.1637 12.25 49.8791 12.25 50.625C12.25 51.3709 11.9537 52.0863 11.4262 52.6137C10.8988 53.1412 10.1834 53.4375 9.4375 53.4375C8.69158 53.4375 7.97621 53.1412 7.44876 52.6137C6.92132 52.0863 6.625 51.3709 6.625 50.625C6.625 49.8791 6.92132 49.1637 7.44876 48.6363C7.97621 48.1088 8.69158 47.8125 9.4375 47.8125Z" fill="#FFD700"/>
</svg>
