<svg width="59" height="78" viewBox="0 0 59 78" fill="none" xmlns="http://www.w3.org/2000/svg">
<path d="M56.7005 39.0762L56.5948 38.7867C51.4594 24.4969 43.0313 11.6543 32.0203 1.29492L31.5219 0.837891C30.963 0.304688 30.2078 0 29.4375 0C28.6672 0 27.912 0.304688 27.3531 0.837891L26.8547 1.29492C15.8437 11.6543 7.41563 24.4969 2.28021 38.7867L2.17448 39.0762C1.02656 42.2449 0.4375 45.6117 0.4375 48.9938C0.4375 65.0051 13.5479 78 29.4375 78C45.3271 78 58.4375 65.0051 58.4375 48.9938C58.4375 45.6117 57.8484 42.2602 56.7005 39.0762ZM42.9859 46.6172C43.6052 48.034 43.9224 49.5727 43.9224 51.1113C43.9224 59.1855 37.4276 65.8125 29.4224 65.8125C21.4172 65.8125 14.9224 59.1855 14.9224 51.1113C14.9224 49.5727 15.2396 48.0187 15.8589 46.6172L16.1458 45.9621C18.5323 40.5691 21.8703 35.6484 26.0089 31.4742L27.3531 30.1184C27.8969 29.5699 28.637 29.2652 29.4073 29.2652C30.1776 29.2652 30.9177 29.5699 31.4615 30.1184L32.8057 31.4742C36.9443 35.6484 40.2974 40.5691 42.6688 45.9621L42.9557 46.6172H42.9859Z" fill="#FFD700"/>
</svg>
