<svg width="74" height="70" viewBox="0 0 74 70" fill="none" xmlns="http://www.w3.org/2000/svg">
<path d="M23.2432 25.1592C27.8697 36.9957 32.6594 41.7183 44.8443 46.7485L39.5637 53.7036C25.5716 47.4213 18.6025 36.8314 15.3202 28.5672L23.2432 25.1592Z" fill="#FFD700"/>
<path d="M27.1243 8.81815C29.5983 8.80908 31.4793 10.7396 31.3107 12.9257C31.0453 16.3658 31.3278 18.8478 32.0886 21.9243C32.5065 23.6143 31.5611 25.3307 30.0587 26.4362C28.0336 27.9263 26.4865 29.8249 25.2569 31.4594C23.5526 33.7248 17.6875 33.562 16.3905 31.0941C13.7248 26.0221 11.9183 16.6777 15.8109 10.3644C16.4224 9.37273 17.6535 8.85288 18.9292 8.8482L27.1243 8.81815Z" fill="#FFD700"/>
<path d="M64.6777 46.3511C64.9853 44.177 63.0476 42.2909 60.5771 42.1762C56.6892 41.9959 53.9412 41.449 50.5843 40.41C48.7404 39.8394 46.7029 40.4642 45.283 41.6523C43.3693 43.2537 41.0551 44.3856 39.0752 45.2702C36.331 46.4963 35.8081 51.6728 38.4184 53.1101C43.7829 56.0639 54.0395 58.776 61.584 56.1126C62.769 55.6942 63.4998 54.6743 63.6584 53.5531L64.6777 46.3511Z" fill="#FFD700"/>
</svg>
